<svg version="1.1" id="Layer_1" xmlns="http://www.w3.org/2000/svg" xmlns:xlink="http://www.w3.org/1999/xlink" x="0px" y="0px"
	 width="100%" viewBox="0 0 500 197" enable-background="new 0 0 500 197" xml:space="preserve">
<path fill="#FEFEFE" opacity="1.000000" stroke="none" 
	d="
M437.000000,198.000000 
	C291.731079,198.000000 146.462128,198.000000 1.096596,198.000000 
	C1.096596,132.426956 1.096596,66.853722 1.096596,1.000000 
	C117.687950,1.000000 234.376129,1.000000 351.593079,1.355295 
	C353.366821,2.420837 354.533447,3.379621 355.869537,3.801094 
	C364.699646,6.586611 373.503784,9.386666 380.824249,15.410795 
	C384.893311,18.759289 389.098358,21.874182 390.698730,27.383276 
	C393.210541,36.029690 394.530212,44.315189 392.253113,53.587780 
	C390.053986,62.542828 386.388824,70.156715 379.681946,75.928520 
	C374.856781,80.080986 373.815674,81.931717 377.210785,87.417160 
	C381.581055,94.478127 385.869873,101.590256 390.109619,108.730339 
	C390.668579,109.671707 390.486938,111.060898 391.064301,111.981934 
	C393.919403,116.536652 396.914368,121.003693 399.860016,125.501656 
	C400.439575,125.239792 401.019165,124.977928 401.598724,124.716072 
	C401.728271,123.311386 402.026672,121.898285 401.957062,120.503532 
	C401.705383,115.460236 401.079163,110.424728 401.046600,105.383354 
	C400.930725,87.455322 400.961914,69.525948 401.024841,51.597393 
	C401.043701,46.223160 403.249939,44.083244 408.657806,44.020714 
	C415.731506,43.938919 422.806854,43.999447 429.881500,43.999332 
	C436.465179,43.999226 443.052643,43.881222 449.629639,44.091248 
	C451.105225,44.138371 452.544189,45.334305 453.624512,46.002441 
	C452.165924,46.666718 451.082855,47.329910 449.542694,48.104683 
	C437.390472,48.141819 425.695374,48.067375 413.918762,47.613251 
	C411.041199,45.599922 408.291931,44.448040 405.623657,48.228638 
	C405.058838,48.911678 404.699341,49.364677 404.706177,49.812084 
	C405.101013,75.674057 405.410522,101.538818 406.138977,127.391731 
	C406.206970,129.804092 408.407959,133.000565 410.551453,134.338943 
	C415.391998,137.361389 420.816681,139.448425 426.034302,142.220856 
	C426.465118,142.870590 426.865326,143.215454 427.265564,143.560303 
	C427.511230,143.042709 427.756927,142.525146 428.119690,141.554016 
	C428.382599,136.743744 428.528412,132.387024 429.052612,128.023102 
	C430.954010,128.010193 432.476990,128.004486 433.947418,128.411713 
	C432.939819,134.647888 431.984802,140.471130 430.961853,146.708664 
	C432.116180,147.120422 434.011444,147.682770 435.812683,148.462341 
	C439.718781,150.152863 440.148773,152.697891 437.072449,155.543930 
	C435.856964,156.668427 434.323029,157.553772 433.418701,158.878769 
	C432.580170,160.107376 431.821747,161.858765 432.020844,163.236465 
	C432.541656,166.840179 432.504089,171.814682 434.754456,173.524612 
	C437.123749,175.324921 441.886810,173.976059 445.603973,174.000458 
	C446.434082,174.005905 447.285126,174.119659 448.090881,173.979095 
	C452.416870,173.224380 456.714172,172.274307 461.061737,171.694412 
	C462.235352,171.537872 463.986267,172.089767 464.670135,172.952347 
	C465.289337,173.733429 465.288849,175.649643 464.748352,176.605423 
	C459.961182,185.070602 452.208527,189.722488 443.418610,193.188217 
	C441.019623,194.134109 439.125702,196.360992 437.000000,198.000000 
M403.943878,161.428314 
	C403.539673,161.122299 403.135437,160.816284 402.731232,160.510269 
	C402.640656,160.772110 402.430450,161.236526 402.477905,161.264542 
	C402.964966,161.552063 403.493805,161.768845 404.146881,162.702866 
	C410.095459,165.200302 416.044037,167.697739 422.116943,170.831375 
	C423.252930,170.818771 424.388916,170.806183 426.292786,170.784592 
	C432.204102,168.871918 426.604340,165.043121 427.836029,163.136108 
	C419.771454,162.754868 411.888092,162.382202 403.943878,161.428314 
M234.503265,128.488647 
	C234.668442,126.688858 234.970779,124.889511 234.976715,123.089195 
	C235.018280,110.440819 234.960556,97.792053 235.027252,85.143890 
	C235.042755,82.202454 235.534576,79.265526 235.599228,76.321960 
	C235.740234,69.901657 235.936295,63.472057 235.720123,57.059395 
	C235.628693,54.347164 234.555267,51.668034 233.357742,48.141010 
	C225.155655,48.141010 216.953568,48.141010 208.550385,48.141010 
	C208.550385,63.391682 208.550385,78.471291 208.550385,93.704956 
	C191.649857,93.704956 175.083664,93.704956 158.700836,93.704956 
	C158.700836,78.207199 158.700836,63.009815 158.700836,47.920887 
	C150.349731,47.920887 142.080444,47.920887 133.775711,47.920887 
	C133.775711,88.077248 133.775711,127.938766 133.775711,167.670135 
	C142.360077,167.670135 150.600983,167.670135 158.464111,167.670135 
	C158.464111,150.423782 158.464111,133.533829 158.464111,116.782784 
	C175.180466,116.782784 191.728439,116.782784 208.276489,116.782784 
	C208.276489,134.076706 208.276489,150.950455 208.276489,167.719238 
	C216.685837,167.719238 224.774063,167.719238 233.863098,167.719238 
	C233.863098,154.626602 233.863098,141.837158 234.503265,128.488647 
M316.115753,90.801208 
	C323.176453,92.010849 326.286133,96.970459 328.083679,103.270767 
	C332.946869,120.315872 337.971161,137.304123 347.049774,153.464066 
	C347.728394,154.298706 348.407043,155.133347 349.661469,156.307495 
	C356.055115,163.418518 361.908478,171.128708 368.971375,177.497559 
	C379.103912,186.634369 391.727966,191.229523 405.084320,194.631226 
	C406.058075,194.479401 407.031830,194.327576 408.863007,194.092285 
	C414.573700,194.111710 420.284363,194.131149 426.113007,194.804016 
	C427.074402,194.513245 428.035797,194.222488 429.605408,193.432358 
	C441.741608,190.966492 452.760834,186.419769 461.457977,176.296600 
	C461.525330,175.929535 461.592651,175.562454 461.659973,175.195404 
	C461.033752,175.388382 460.407532,175.581345 458.994690,175.875137 
	C445.317780,180.140060 431.653534,180.000885 417.997559,175.059082 
	C417.765747,174.159607 417.533966,173.260117 417.302155,172.360641 
	C417.045654,172.381393 416.789154,172.402145 416.532654,172.422897 
	C416.355621,173.246994 416.178589,174.071075 415.265533,174.926254 
	C399.715546,169.356934 387.751221,159.390182 378.942688,145.195801 
	C390.134521,152.129379 401.980621,156.587341 415.226288,158.248032 
	C416.826324,158.082397 418.426392,157.916763 420.851776,157.377762 
	C426.298462,157.135712 431.698730,156.752304 435.445099,153.205444 
	C428.955078,150.198303 422.445190,147.181961 415.871735,143.431213 
	C414.869415,142.972015 413.867065,142.512817 412.215790,141.889420 
	C406.953156,136.811310 400.571014,132.470291 396.647125,126.510735 
	C386.654419,111.334015 377.760101,95.434059 369.040314,80.850555 
	C373.954254,75.575287 379.164795,71.094353 382.998108,65.644699 
	C392.177734,52.594456 392.753571,35.191570 384.179962,24.031109 
	C380.752747,19.569847 375.452484,16.547541 370.944611,12.305463 
	C370.300964,12.188023 369.657318,12.070582 368.274200,11.929383 
	C360.470642,9.849992 352.773224,7.026758 344.834595,5.893623 
	C336.344482,4.681770 327.626923,5.063372 318.863831,4.106100 
	C317.573059,4.323472 316.282318,4.540845 314.168213,4.976306 
	C306.023346,6.319298 297.749878,7.142689 289.761932,9.119681 
	C275.640594,12.614662 262.857025,18.652348 254.602234,31.523712 
	C245.215851,46.159542 247.630081,64.438271 260.538147,74.455276 
	C262.882751,76.274750 266.224792,76.808968 268.785156,78.334801 
	C269.062653,78.415077 269.340118,78.495361 269.617615,78.575638 
	C269.406097,78.389755 269.194550,78.203865 269.017365,77.246300 
	C265.373566,69.153358 264.543060,61.069626 269.817627,52.856678 
	C270.164368,51.782749 270.511108,50.708817 271.011627,48.989521 
	C273.129181,46.409096 275.246704,43.828671 277.617126,40.940083 
	C277.617126,48.244221 277.617676,54.704311 277.617035,61.164402 
	C277.614288,88.605461 277.498413,116.047256 277.678070,143.487122 
	C277.730927,151.560318 275.259583,157.466385 266.951416,159.685257 
	C262.278717,160.933197 261.577484,163.813034 262.941376,167.676956 
	C281.916321,167.676956 300.612213,167.676956 319.155426,167.676956 
	C320.475555,163.745010 319.076996,162.018143 315.571564,160.688766 
	C312.442841,159.502258 309.759338,157.141739 306.940735,154.554321 
	C306.310303,153.702255 305.679840,152.850189 304.494232,151.421341 
	C303.985596,147.349182 303.108612,143.283356 303.038361,139.203644 
	C302.838470,127.592972 302.916870,115.976311 302.990387,104.362671 
	C303.022736,99.250023 303.308411,94.138962 303.501587,89.074692 
	C303.501587,89.074692 303.553864,89.079933 304.405304,89.285736 
	C306.934082,89.601311 309.462860,89.916893 312.115021,90.850365 
	C313.207092,90.844780 314.299164,90.839195 316.115753,90.801208 
M77.996597,167.692322 
	C95.388031,163.339783 107.696114,152.936661 115.394257,136.277618 
	C107.822792,133.242615 100.471214,130.295731 93.500313,127.501450 
	C92.791367,127.888657 92.590698,127.930679 92.511078,128.052094 
	C91.607346,129.430344 90.693924,130.803558 89.836395,132.210587 
	C82.743408,143.848618 72.217247,148.632874 58.953503,146.867584 
	C46.801590,145.250275 39.556095,137.464111 35.614349,126.288826 
	C30.888453,112.890381 31.457104,99.502754 36.596207,86.415581 
	C44.902287,65.263412 71.389954,60.638195 86.116554,77.704086 
	C88.459892,80.419655 90.084465,83.755470 92.235268,87.106682 
	C100.147194,84.709236 108.117363,82.294144 116.251160,79.829468 
	C106.608521,58.318291 91.269554,45.594688 67.750641,45.032063 
	C44.245293,44.469765 25.385973,53.415947 14.613448,75.096771 
	C5.149132,94.144684 4.967084,114.248718 11.748096,134.200256 
	C17.287966,150.500031 28.626822,161.240692 45.206345,166.464630 
	C55.791912,169.799988 66.438263,169.403900 77.996597,167.692322 
M396.847321,157.548782 
	C396.039734,157.679977 395.232117,157.811172 394.424530,157.942352 
	C394.857971,158.546448 395.291443,159.150558 395.724884,159.754654 
	C396.259766,159.175201 396.794647,158.595749 396.847321,157.548782 
z"/>
<path fill="#FFFFFE" opacity="1.000000" stroke="none" 
	d="
M437.468658,198.000000 
	C439.125702,196.360992 441.019623,194.134109 443.418610,193.188217 
	C452.208527,189.722488 459.961182,185.070602 464.748352,176.605423 
	C465.288849,175.649643 465.289337,173.733429 464.670135,172.952347 
	C463.986267,172.089767 462.235352,171.537872 461.061737,171.694412 
	C456.714172,172.274307 452.416870,173.224380 448.090881,173.979095 
	C447.285126,174.119659 446.434082,174.005905 445.603973,174.000458 
	C441.886810,173.976059 437.123749,175.324921 434.754456,173.524612 
	C432.504089,171.814682 432.541656,166.840179 432.020844,163.236465 
	C431.821747,161.858765 432.580170,160.107376 433.418701,158.878769 
	C434.323029,157.553772 435.856964,156.668427 437.072449,155.543930 
	C440.148773,152.697891 439.718781,150.152863 435.812683,148.462341 
	C434.011444,147.682770 432.116180,147.120422 430.961853,146.708664 
	C431.984802,140.471130 432.939819,134.647888 434.347412,128.411377 
	C435.866669,127.997925 436.933319,127.997726 438.088013,128.389252 
	C441.308350,129.071411 444.483612,129.832153 447.563904,129.551422 
	C453.437225,129.016174 459.231323,127.432472 465.103790,127.108025 
	C474.443878,126.592010 480.390411,120.392586 486.906433,115.099464 
	C492.753235,110.349922 493.035217,102.651176 496.127441,96.434235 
	C496.775085,95.132172 495.424774,92.836357 494.995972,90.560226 
	C494.429840,87.410576 493.862885,84.699165 493.126160,81.611145 
	C491.923981,77.171440 490.891632,73.108345 490.230194,68.975128 
	C490.679138,67.061440 491.523926,64.735214 490.714905,63.450043 
	C483.697968,52.303089 472.315430,47.950615 460.337097,44.732353 
	C459.716278,44.565548 458.785339,45.552990 457.598907,46.002811 
	C456.132690,46.002171 455.066345,46.001770 454.000000,46.001369 
	C452.544189,45.334305 451.105225,44.138371 449.629639,44.091248 
	C443.052643,43.881222 436.465179,43.999226 429.881500,43.999332 
	C422.806854,43.999447 415.731506,43.938919 408.657806,44.020714 
	C403.249939,44.083244 401.043701,46.223160 401.024841,51.597393 
	C400.961914,69.525948 400.930725,87.455322 401.046600,105.383354 
	C401.079163,110.424728 401.705383,115.460236 401.957062,120.503532 
	C402.026672,121.898285 401.728271,123.311386 401.598724,124.716072 
	C401.019165,124.977928 400.439575,125.239792 399.860016,125.501656 
	C396.914368,121.003693 393.919403,116.536652 391.064301,111.981934 
	C390.486938,111.060898 390.668579,109.671707 390.109619,108.730339 
	C385.869873,101.590256 381.581055,94.478127 377.210785,87.417160 
	C373.815674,81.931717 374.856781,80.080986 379.681946,75.928520 
	C386.388824,70.156715 390.053986,62.542828 392.253113,53.587780 
	C394.530212,44.315189 393.210541,36.029690 390.698730,27.383276 
	C389.098358,21.874182 384.893311,18.759289 380.824249,15.410795 
	C373.503784,9.386666 364.699646,6.586611 355.869537,3.801094 
	C354.533447,3.379621 353.366821,2.420837 352.060913,1.355295 
	C401.613617,1.000000 451.227264,1.000000 500.920441,1.000000 
	C500.920441,66.543411 500.920441,132.086960 500.920441,198.000000 
	C479.980560,198.000000 458.958923,198.000000 437.468658,198.000000 
z"/>
<path fill="#0B0A0B" opacity="1.000000" stroke="none" 
	d="
M269.096741,53.003525 
	C264.543060,61.069626 265.373566,69.153358 269.029541,77.609558 
	C269.041748,77.972816 269.106354,77.936508 269.106354,77.936508 
	C266.224792,76.808968 262.882751,76.274750 260.538147,74.455276 
	C247.630081,64.438271 245.215851,46.159542 254.602234,31.523712 
	C262.857025,18.652348 275.640594,12.614662 289.761932,9.119681 
	C297.749878,7.142689 306.023346,6.319298 314.971832,4.982575 
	C316.853180,4.909047 317.930908,4.829249 319.008636,4.749452 
	C327.626923,5.063372 336.344482,4.681770 344.834595,5.893623 
	C352.773224,7.026758 360.470642,9.849992 368.831787,12.160419 
	C369.927887,12.551042 370.466339,12.710629 371.004822,12.870218 
	C375.452484,16.547541 380.752747,19.569847 384.179962,24.031109 
	C392.753571,35.191570 392.177734,52.594456 382.998108,65.644699 
	C379.164795,71.094353 373.954254,75.575287 369.040314,80.850555 
	C377.760101,95.434059 386.654419,111.334015 396.647125,126.510735 
	C400.571014,132.470291 406.953156,136.811310 412.696472,142.255249 
	C414.096558,143.135925 415.015930,143.650772 415.935303,144.165619 
	C422.445190,147.181961 428.955078,150.198303 435.445099,153.205444 
	C431.698730,156.752304 426.298462,157.135712 420.034424,157.425507 
	C417.803680,157.542053 416.390259,157.610870 414.976868,157.679688 
	C401.980621,156.587341 390.134521,152.129379 378.942688,145.195801 
	C387.751221,159.390182 399.715546,169.356934 415.869843,175.073914 
	C416.983124,175.400162 417.492096,175.578735 418.001068,175.757324 
	C431.653534,180.000885 445.317780,180.140060 459.670471,176.046982 
	C460.548248,176.347672 460.750275,176.476501 460.952301,176.605316 
	C452.760834,186.419769 441.741608,190.966492 428.923157,193.630463 
	C427.492279,193.935913 426.743652,194.043243 425.995056,194.150589 
	C420.284363,194.131149 414.573700,194.111710 408.076080,193.997452 
	C406.526459,193.925491 405.763794,193.948380 405.001099,193.971252 
	C391.727966,191.229523 379.103912,186.634369 368.971375,177.497559 
	C361.908478,171.128708 356.055115,163.418518 349.327972,155.812836 
	C348.368774,154.446182 347.743073,153.574173 347.117340,152.702179 
	C337.971161,137.304123 332.946869,120.315872 328.083679,103.270767 
	C326.286133,96.970459 323.176453,92.010849 315.509674,90.538559 
	C313.932953,90.261436 312.962280,90.246956 311.991638,90.232475 
	C309.462860,89.916893 306.934082,89.601311 304.095306,88.834808 
	C306.267700,86.479988 308.703674,84.511635 311.241699,82.685013 
	C317.303528,78.322342 323.724304,74.392784 329.397339,69.578087 
	C333.341980,66.230263 337.027771,63.073772 342.095734,61.369034 
	C345.253113,60.306973 348.203766,57.948421 350.643372,55.556015 
	C359.758972,46.616814 357.792114,34.994732 346.204865,29.660240 
	C331.573761,22.924398 316.897278,23.845406 302.954865,29.712278 
	C302.954865,45.536175 302.917267,60.823578 302.978882,76.110580 
	C302.996246,80.416718 303.304352,84.721680 303.479065,89.027184 
	C303.308411,94.138962 303.022736,99.250023 302.990387,104.362671 
	C302.916870,115.976311 302.838470,127.592972 303.038361,139.203644 
	C303.108612,143.283356 303.985596,147.349182 304.779785,152.041229 
	C305.670013,153.540497 306.274689,154.419891 306.879364,155.299286 
	C309.759338,157.141739 312.442841,159.502258 315.571564,160.688766 
	C319.076996,162.018143 320.475555,163.745010 319.155426,167.676956 
	C300.612213,167.676956 281.916321,167.676956 262.941376,167.676956 
	C261.577484,163.813034 262.278717,160.933197 266.951416,159.685257 
	C275.259583,157.466385 277.730927,151.560318 277.678070,143.487122 
	C277.498413,116.047256 277.614288,88.605461 277.617035,61.164402 
	C277.617676,54.704311 277.617126,48.244221 277.617126,40.940083 
	C275.246704,43.828671 273.129181,46.409096 270.648560,49.481724 
	C269.889221,50.983791 269.492981,51.993656 269.096741,53.003525 
M349.161682,74.348640 
	C347.756683,73.603302 346.405487,72.373451 344.935822,72.210167 
	C341.531311,71.831932 338.667603,72.799225 338.019257,76.853561 
	C337.541687,79.840050 337.420746,82.840919 341.128571,83.596603 
	C344.956360,84.376732 348.085022,83.082573 349.212341,78.926674 
	C349.546112,77.696167 349.416351,76.339928 349.161682,74.348640 
M378.829834,146.479340 
	C378.757141,145.677139 378.684448,144.874954 378.611725,144.072754 
	C378.160889,144.143845 377.710052,144.214920 377.259186,144.286011 
	C377.459747,144.922455 377.660278,145.558899 378.829834,146.479340 
z"/>
<path fill="#0B0B0B" opacity="1.000000" stroke="none" 
	d="
M233.863098,129.047729 
	C233.863098,141.837158 233.863098,154.626602 233.863098,167.719238 
	C224.774063,167.719238 216.685837,167.719238 208.276489,167.719238 
	C208.276489,150.950455 208.276489,134.076706 208.276489,116.782784 
	C191.728439,116.782784 175.180466,116.782784 158.464111,116.782784 
	C158.464111,133.533829 158.464111,150.423782 158.464111,167.670135 
	C150.600983,167.670135 142.360077,167.670135 133.775711,167.670135 
	C133.775711,127.938766 133.775711,88.077248 133.775711,47.920887 
	C142.080444,47.920887 150.349731,47.920887 158.700836,47.920887 
	C158.700836,63.009815 158.700836,78.207199 158.700836,93.704956 
	C175.083664,93.704956 191.649857,93.704956 208.550385,93.704956 
	C208.550385,78.471291 208.550385,63.391682 208.550385,48.141010 
	C216.953568,48.141010 225.155655,48.141010 233.498596,48.916492 
	C233.617081,64.508209 233.551132,79.324554 233.586212,94.140648 
	C233.613770,105.776489 233.766159,117.412048 233.863098,129.047729 
z"/>
<path fill="#0C0B0C" opacity="1.000000" stroke="none" 
	d="
M77.592613,167.827072 
	C66.438263,169.403900 55.791912,169.799988 45.206345,166.464630 
	C28.626822,161.240692 17.287966,150.500031 11.748096,134.200256 
	C4.967084,114.248718 5.149132,94.144684 14.613448,75.096771 
	C25.385973,53.415947 44.245293,44.469765 67.750641,45.032063 
	C91.269554,45.594688 106.608521,58.318291 116.251160,79.829468 
	C108.117363,82.294144 100.147194,84.709236 92.235268,87.106682 
	C90.084465,83.755470 88.459892,80.419655 86.116554,77.704086 
	C71.389954,60.638195 44.902287,65.263412 36.596207,86.415581 
	C31.457104,99.502754 30.888453,112.890381 35.614349,126.288826 
	C39.556095,137.464111 46.801590,145.250275 58.953503,146.867584 
	C72.217247,148.632874 82.743408,143.848618 89.836395,132.210587 
	C90.693924,130.803558 91.607346,129.430344 92.511078,128.052094 
	C92.590698,127.930679 92.791367,127.888657 93.500313,127.501450 
	C100.471214,130.295731 107.822792,133.242615 115.394257,136.277618 
	C107.696114,152.936661 95.388031,163.339783 77.592613,167.827072 
z"/>
<path fill="#0B0B0B" opacity="1.000000" stroke="none" 
	d="
M489.859283,69.045250 
	C490.891632,73.108345 491.923981,77.171440 493.054504,82.058548 
	C493.234253,85.594307 493.315796,88.306046 493.248840,91.409454 
	C491.696350,105.167480 485.236145,115.464661 472.919800,120.746513 
	C466.140686,123.653732 458.354034,124.211517 450.700470,125.693619 
	C449.250031,125.698349 448.120789,125.837990 446.555176,125.884094 
	C443.748291,125.944351 441.377747,126.098152 438.562744,126.157593 
	C435.529663,126.063652 432.930908,125.941956 430.359741,126.154175 
	C429.750427,126.204460 429.233612,127.375053 428.674255,128.030304 
	C428.528412,132.387024 428.382599,136.743744 427.786102,141.524414 
	C426.891510,141.937561 426.447632,141.926758 426.003723,141.915955 
	C420.816681,139.448425 415.391998,137.361389 410.551453,134.338943 
	C408.407959,133.000565 406.206970,129.804092 406.138977,127.391731 
	C405.410522,101.538818 405.101013,75.674057 404.706177,49.812084 
	C404.699341,49.364677 405.058838,48.911678 406.054626,48.351204 
	C409.241302,48.158386 411.620758,48.075657 414.000244,47.992928 
	C425.695374,48.067375 437.390472,48.141819 449.972900,48.227631 
	C453.239105,48.178379 455.618011,48.117756 458.265686,48.230141 
	C459.353149,48.509781 460.171875,48.616409 461.313751,48.839722 
	C462.092529,48.933567 462.548187,48.910725 463.296875,49.119911 
	C475.237274,52.060143 483.907104,58.740097 489.859283,69.045250 
M429.022491,95.463760 
	C429.022491,98.571884 429.022491,101.680008 429.022491,105.031479 
	C434.905975,105.031479 440.206604,105.160263 445.497162,104.984398 
	C448.804077,104.874474 452.156342,104.585716 455.382538,103.888084 
	C463.956116,102.034126 468.370636,96.080833 468.610504,86.525002 
	C468.816711,78.309456 464.740540,71.142265 457.297760,69.884804 
	C448.115295,68.333443 438.661377,68.388847 429.027863,67.729599 
	C429.027863,77.509735 429.027863,85.992424 429.022491,95.463760 
z"/>
<path fill="#F7F7F7" opacity="1.000000" stroke="none" 
	d="
M303.490326,89.050934 
	C303.304352,84.721680 302.996246,80.416718 302.978882,76.110580 
	C302.917267,60.823578 302.954865,45.536175 302.954865,29.712278 
	C316.897278,23.845406 331.573761,22.924398 346.204865,29.660240 
	C357.792114,34.994732 359.758972,46.616814 350.643372,55.556015 
	C348.203766,57.948421 345.253113,60.306973 342.095734,61.369034 
	C337.027771,63.073772 333.341980,66.230263 329.397339,69.578087 
	C323.724304,74.392784 317.303528,78.322342 311.241699,82.685013 
	C308.703674,84.511635 306.267700,86.479988 303.669586,88.731911 
	C303.553864,89.079933 303.501587,89.074692 303.490326,89.050934 
z"/>
<path fill="#F7F7F7" opacity="1.000000" stroke="none" 
	d="
M234.183182,128.768188 
	C233.766159,117.412048 233.613770,105.776489 233.586212,94.140648 
	C233.551132,79.324554 233.617081,64.508209 233.783829,49.332916 
	C234.555267,51.668034 235.628693,54.347164 235.720123,57.059395 
	C235.936295,63.472057 235.740234,69.901657 235.599228,76.321960 
	C235.534576,79.265526 235.042755,82.202454 235.027252,85.143890 
	C234.960556,97.792053 235.018280,110.440819 234.976715,123.089195 
	C234.970779,124.889511 234.668442,126.688858 234.183182,128.768188 
z"/>
<path fill="#171616" opacity="1.000000" stroke="none" 
	d="
M421.992615,170.195160 
	C416.044037,167.697739 410.095459,165.200302 404.073425,162.351166 
	C404.000000,161.999481 404.004700,162.009537 404.004700,162.009521 
	C411.888092,162.382202 419.771454,162.754868 427.836029,163.136108 
	C426.604340,165.043121 432.204102,168.871918 425.625458,170.542938 
	C423.969635,170.265900 422.981110,170.230530 421.992615,170.195160 
z"/>
<path fill="#F7F7F7" opacity="1.000000" stroke="none" 
	d="
M429.052612,128.023102 
	C429.233612,127.375053 429.750427,126.204460 430.359741,126.154175 
	C432.930908,125.941956 435.529663,126.063652 438.541260,126.427368 
	C438.642792,127.193512 438.321411,127.595528 438.000000,127.997528 
	C436.933319,127.997726 435.866669,127.997925 434.399994,127.998451 
	C432.476990,128.004486 430.954010,128.010193 429.052612,128.023102 
z"/>
<path fill="#F7F7F7" opacity="1.000000" stroke="none" 
	d="
M457.996948,48.057129 
	C455.618011,48.117756 453.239105,48.178379 450.429993,48.116051 
	C451.082855,47.329910 452.165924,46.666718 453.624512,46.002449 
	C455.066345,46.001770 456.132690,46.002171 457.599304,46.345116 
	C457.998688,47.144150 457.997833,47.600643 457.996948,48.057129 
z"/>
<path fill="#F7F7F7" opacity="1.000000" stroke="none" 
	d="
M413.918762,47.613251 
	C411.620758,48.075657 409.241302,48.158386 406.430847,48.118546 
	C408.291931,44.448040 411.041199,45.599922 413.918762,47.613251 
z"/>
<path fill="#F7F7F7" opacity="1.000000" stroke="none" 
	d="
M415.101562,157.963867 
	C416.390259,157.610870 417.803680,157.542053 419.621765,157.612183 
	C418.426392,157.916763 416.826324,158.082397 415.101562,157.963867 
z"/>
<path fill="#FFFFFE" opacity="1.000000" stroke="none" 
	d="
M397.088440,157.782532 
	C396.794647,158.595749 396.259766,159.175201 395.724884,159.754654 
	C395.291443,159.150558 394.857971,158.546448 394.424530,157.942352 
	C395.232117,157.811172 396.039734,157.679977 397.088440,157.782532 
z"/>
<path fill="#F7F7F7" opacity="1.000000" stroke="none" 
	d="
M318.936218,4.427776 
	C317.930908,4.829249 316.853180,4.909047 315.383484,4.873530 
	C316.282318,4.540845 317.573059,4.323472 318.936218,4.427776 
z"/>
<path fill="#FFFFFE" opacity="1.000000" stroke="none" 
	d="
M417.999329,175.408203 
	C417.492096,175.578735 416.983124,175.400162 416.237854,175.058380 
	C416.178589,174.071075 416.355621,173.246994 416.532654,172.422897 
	C416.789154,172.402145 417.045654,172.381393 417.302155,172.360641 
	C417.533966,173.260117 417.765747,174.159607 417.999329,175.408203 
z"/>
<path fill="#F7F7F7" opacity="1.000000" stroke="none" 
	d="
M426.054016,194.477295 
	C426.743652,194.043243 427.492279,193.935913 428.619019,193.880142 
	C428.035797,194.222488 427.074402,194.513245 426.054016,194.477295 
z"/>
<path fill="#F7F7F7" opacity="1.000000" stroke="none" 
	d="
M405.042725,194.301239 
	C405.763794,193.948380 406.526459,193.925491 407.647369,194.039185 
	C407.031830,194.327576 406.058075,194.479401 405.042725,194.301239 
z"/>
<path fill="#F7F7F7" opacity="1.000000" stroke="none" 
	d="
M415.903503,143.798416 
	C415.015930,143.650772 414.096558,143.135925 413.020966,142.337341 
	C413.867065,142.512817 414.869415,142.972015 415.903503,143.798416 
z"/>
<path fill="#F7F7F7" opacity="1.000000" stroke="none" 
	d="
M422.054779,170.513275 
	C422.981110,170.230530 423.969635,170.265900 425.241516,170.547424 
	C424.388916,170.806183 423.252930,170.818771 422.054779,170.513275 
z"/>
<path fill="#F7F7F7" opacity="1.000000" stroke="none" 
	d="
M269.457184,52.930099 
	C269.492981,51.993656 269.889221,50.983791 270.571655,49.804405 
	C270.511108,50.708817 270.164368,51.782749 269.457184,52.930099 
z"/>
<path fill="#F7F7F7" opacity="1.000000" stroke="none" 
	d="
M347.083557,153.083115 
	C347.743073,153.574173 348.368774,154.446182 349.040070,155.643082 
	C348.407043,155.133347 347.728394,154.298706 347.083557,153.083115 
z"/>
<path fill="#F7F7F7" opacity="1.000000" stroke="none" 
	d="
M306.910034,154.926788 
	C306.274689,154.419891 305.670013,153.540497 305.057373,152.329620 
	C305.679840,152.850189 306.310303,153.702255 306.910034,154.926788 
z"/>
<path fill="#F7F7F7" opacity="1.000000" stroke="none" 
	d="
M312.053345,90.541420 
	C312.962280,90.246956 313.932953,90.261436 315.147400,90.554764 
	C314.299164,90.839195 313.207092,90.844780 312.053345,90.541420 
z"/>
<path fill="#F7F7F7" opacity="1.000000" stroke="none" 
	d="
M404.005493,162.002426 
	C403.493805,161.768845 402.964966,161.552063 402.477905,161.264542 
	C402.430450,161.236526 402.640656,160.772110 402.731232,160.510269 
	C403.135437,160.816284 403.539673,161.122299 403.974304,161.718933 
	C404.004700,162.009537 404.000000,161.999481 404.005493,162.002426 
z"/>
<path fill="#F7F7F7" opacity="1.000000" stroke="none" 
	d="
M370.974731,12.587839 
	C370.466339,12.710629 369.927887,12.551042 369.201538,12.172298 
	C369.657318,12.070582 370.300964,12.188023 370.974731,12.587839 
z"/>
<path fill="#F7F7F7" opacity="1.000000" stroke="none" 
	d="
M426.034302,142.220856 
	C426.447632,141.926758 426.891510,141.937561 427.669006,141.977966 
	C427.756927,142.525146 427.511230,143.042709 427.265564,143.560303 
	C426.865326,143.215454 426.465118,142.870590 426.034302,142.220856 
z"/>
<path fill="#0B0A0B" opacity="1.000000" stroke="none" 
	d="
M460.063782,175.996582 
	C460.407532,175.581345 461.033752,175.388382 461.659973,175.195404 
	C461.592651,175.562454 461.525330,175.929535 461.205139,176.450958 
	C460.750275,176.476501 460.548248,176.347672 460.063782,175.996582 
z"/>
<path fill="#0B0A0B" opacity="1.000000" stroke="none" 
	d="
M269.012390,77.995392 
	C269.194550,78.203865 269.406097,78.389755 269.617615,78.575638 
	C269.340118,78.495361 269.062653,78.415077 268.945740,78.135651 
	C269.106354,77.936508 269.041748,77.972816 269.012390,77.995392 
z"/>
<path fill="#FEFEFE" opacity="1.000000" stroke="none" 
	d="
M438.088013,128.389267 
	C438.321411,127.595528 438.642792,127.193512 438.985687,126.521729 
	C441.377747,126.098152 443.748291,125.944351 446.737030,126.135620 
	C448.577362,126.263306 449.799500,126.045929 451.021637,125.828537 
	C458.354034,124.211517 466.140686,123.653732 472.919800,120.746513 
	C485.236145,115.464661 491.696350,105.167480 493.515198,91.414871 
	C494.285126,91.018570 494.640106,91.008522 494.995117,90.998474 
	C495.424774,92.836357 496.775085,95.132172 496.127441,96.434235 
	C493.035217,102.651176 492.753235,110.349922 486.906433,115.099464 
	C480.390411,120.392586 474.443878,126.592010 465.103790,127.108025 
	C459.231323,127.432472 453.437225,129.016174 447.563904,129.551422 
	C444.483612,129.832153 441.308350,129.071411 438.088013,128.389267 
z"/>
<path fill="#FEFEFE" opacity="1.000000" stroke="none" 
	d="
M458.265686,48.230141 
	C457.997833,47.600643 457.998688,47.144150 457.999176,46.345360 
	C458.785339,45.552990 459.716278,44.565548 460.337097,44.732353 
	C472.315430,47.950615 483.697968,52.303089 490.714905,63.450043 
	C491.523926,64.735214 490.679138,67.061440 490.230194,68.975128 
	C483.907104,58.740097 475.237274,52.060143 463.263306,48.838799 
	C462.634399,48.012245 462.332062,47.698845 462.029785,47.385448 
	C461.683411,47.831322 461.337036,48.277187 460.990662,48.723045 
	C460.171875,48.616409 459.353149,48.509781 458.265686,48.230141 
z"/>
<path fill="#F7F7F7" opacity="1.000000" stroke="none" 
	d="
M494.995972,90.560234 
	C494.640106,91.008522 494.285126,91.018570 493.663757,91.023209 
	C493.315796,88.306046 493.234253,85.594307 493.224304,82.435150 
	C493.862885,84.699165 494.429840,87.410576 494.995972,90.560234 
z"/>
<path fill="#EFEFEF" opacity="1.000000" stroke="none" 
	d="
M349.330353,74.694977 
	C349.416351,76.339928 349.546112,77.696167 349.212341,78.926674 
	C348.085022,83.082573 344.956360,84.376732 341.128571,83.596603 
	C337.420746,82.840919 337.541687,79.840050 338.019257,76.853561 
	C338.667603,72.799225 341.531311,71.831932 344.935822,72.210167 
	C346.405487,72.373451 347.756683,73.603302 349.330353,74.694977 
z"/>
<path fill="#F7F7F7" opacity="1.000000" stroke="none" 
	d="
M378.345337,146.337341 
	C377.660278,145.558899 377.459747,144.922455 377.259216,144.286011 
	C377.710052,144.214920 378.160889,144.143845 378.611725,144.072754 
	C378.684448,144.874954 378.757141,145.677139 378.345337,146.337341 
z"/>
<path fill="#F9FAF9" opacity="1.000000" stroke="none" 
	d="
M429.025177,94.969437 
	C429.027863,85.992424 429.027863,77.509735 429.027863,67.729599 
	C438.661377,68.388847 448.115295,68.333443 457.297760,69.884804 
	C464.740540,71.142265 468.816711,78.309456 468.610504,86.525002 
	C468.370636,96.080833 463.956116,102.034126 455.382538,103.888084 
	C452.156342,104.585716 448.804077,104.874474 445.497162,104.984398 
	C440.206604,105.160263 434.905975,105.031479 429.022491,105.031479 
	C429.022491,101.680008 429.022491,98.571884 429.025177,94.969437 
z"/>
<path fill="#F7F7F7" opacity="1.000000" stroke="none" 
	d="
M450.700470,125.693626 
	C449.799500,126.045929 448.577362,126.263306 447.173370,126.229156 
	C448.120789,125.837990 449.250031,125.698349 450.700470,125.693626 
z"/>
<path fill="#F7F7F7" opacity="1.000000" stroke="none" 
	d="
M461.313782,48.839729 
	C461.337036,48.277187 461.683411,47.831322 462.029785,47.385448 
	C462.332062,47.698845 462.634399,48.012245 462.970276,48.606766 
	C462.548187,48.910725 462.092529,48.933567 461.313782,48.839729 
z"/>
</svg>